<svg xmlns="http://www.w3.org/2000/svg" viewBox="0 0 64 64">
  <defs>
    <linearGradient id="bg4" x1="0" y1="0" x2="1" y2="1">
      <stop offset="0%" stop-color="#434c5e"/>
      <stop offset="100%" stop-color="#2e3440"/>
    </linearGradient>
  </defs>
  <rect width="64" height="64" rx="14" fill="url(#bg4)"/>
  <!-- Gear subtle background -->
  <path d="M30 6 L34 6 L35.2 11.5 C37 12 38.6 12.8 40 13.8 L45 11 L48 14 L45.2 19 C46.2 20.4 47 22 47.5 23.8 L53 25 L53 29 L47.5 30.2 C47 32 46.2 33.6 45.2 35 L48 40 L45 43 L40 40.2 C38.6 41.2 37 42 35.2 42.5 L34 48 L30 48 L28.8 42.5 C27 42 25.4 41.2 24 40.2 L19 43 L16 40 L18.8 35 C17.8 33.6 17 32 16.5 30.2 L11 29 L11 25 L16.5 23.8 C17 22 17.8 20.4 18.8 19 L16 14 L19 11 L24 13.8 C25.4 12.8 27 12 28.8 11.5 Z" fill="#4c566a" opacity="0.6"/>
  <!-- Staff -->
  <line x1="32" y1="11" x2="32" y2="52" stroke="#d8dee9" stroke-width="2.5" stroke-linecap="round"/>
  <!-- Left snake -->
  <path d="M32 16 C26 19, 26 24, 32 27 C26 30, 26 35, 32 38" fill="none" stroke="#81a1c1" stroke-width="2.5" stroke-linecap="round"/>
  <!-- Right snake -->
  <path d="M32 16 C38 19, 38 24, 32 27 C38 30, 38 35, 32 38" fill="none" stroke="#81a1c1" stroke-width="2.5" stroke-linecap="round"/>
  <!-- Wings -->
  <path d="M30 14 C27 9, 20 9, 22 14 Z" fill="#d8dee9"/>
  <path d="M34 14 C37 9, 44 9, 42 14 Z" fill="#d8dee9"/>
  <!-- Bottom circle -->
  <circle cx="32" cy="48" r="3.5" fill="#bf616a"/>
</svg>
