<svg xmlns="http://www.w3.org/2000/svg" viewBox="0 0 64 64">
  <defs>
    <linearGradient id="bg6" x1="0" y1="0" x2="1" y2="1">
      <stop offset="0%" stop-color="#434c5e"/>
      <stop offset="100%" stop-color="#2e3440"/>
    </linearGradient>
  </defs>
  <rect width="64" height="64" rx="14" fill="url(#bg6)"/>
  <!-- Circuit traces -->
  <g stroke="#5e81ac" stroke-width="1" opacity="0.35">
    <path d="M4 16 L16 16 L20 20" fill="none"/>
    <path d="M60 16 L48 16 L44 20" fill="none"/>
    <path d="M4 48 L16 48 L20 44" fill="none"/>
    <path d="M60 48 L48 48 L44 44" fill="none"/>
    <circle cx="16" cy="16" r="1.5" fill="#5e81ac"/>
    <circle cx="48" cy="16" r="1.5" fill="#5e81ac"/>
    <circle cx="16" cy="48" r="1.5" fill="#5e81ac"/>
    <circle cx="48" cy="48" r="1.5" fill="#5e81ac"/>
  </g>
  <!-- Stethoscope tubing -->
  <path d="M25 16 C25 16, 25 34, 32 40 C39 34, 39 16, 39 16" fill="none" stroke="#d8dee9" stroke-width="2.5" stroke-linecap="round"/>
  <!-- Ear tips -->
  <circle cx="25" cy="14" r="3.5" fill="#81a1c1"/>
  <circle cx="39" cy="14" r="3.5" fill="#81a1c1"/>
  <!-- Chest piece -->
  <circle cx="32" cy="46" r="6" fill="none" stroke="#d8dee9" stroke-width="2.5"/>
  <circle cx="32" cy="46" r="2.5" fill="#bf616a"/>
</svg>
