<svg xmlns="http://www.w3.org/2000/svg" viewBox="0 0 64 64">
  <rect width="64" height="64" rx="14" fill="#2e3440"/>
  <!-- Gear with proper teeth -->
  <path d="M30 8 L34 8 L35 13 C36.5 13.4 37.9 14 39.2 14.8 L43.4 11.6 L46.4 14.6 L43.2 18.8 C44 20.1 44.6 21.5 45 23 L50 24 L50 28 L45 29 C44.6 30.5 44 31.9 43.2 33.2 L46.4 37.4 L43.4 40.4 L39.2 37.2 C37.9 38 36.5 38.6 35 39 L34 44 L30 44 L29 39 C27.5 38.6 26.1 38 24.8 37.2 L20.6 40.4 L17.6 37.4 L20.8 33.2 C20 31.9 19.4 30.5 19 29 L14 28 L14 24 L19 23 C19.4 21.5 20 20.1 20.8 18.8 L17.6 14.6 L20.6 11.6 L24.8 14.8 C26.1 14 27.5 13.4 29 13 Z" fill="#5e81ac"/>
  <circle cx="32" cy="26" r="8" fill="#2e3440"/>
  <!-- Heart centered in gear -->
  <path d="M32 22 C30 19, 26 19, 26 23 C26 27, 32 32, 32 32 C32 32, 38 27, 38 23 C38 19, 34 19, 32 22Z" fill="#bf616a"/>
</svg>
